<?xml version="1.0" standalone="no"?>
<!DOCTYPE svg PUBLIC "-//W3C//DTD SVG 20010904//EN"
 "http://www.w3.org/TR/2001/REC-SVG-20010904/DTD/svg10.dtd">
<svg version="1.0" xmlns="http://www.w3.org/2000/svg"
 width="500.000000pt" height="500.000000pt" viewBox="0 0 500.000000 500.000000"
 preserveAspectRatio="xMidYMid meet">
<metadata>
Created by potrace 1.14, written by Peter Selinger 2001-2017
</metadata>
<g transform="translate(0.000000,500.000000) scale(0.100000,-0.100000)"
fill="#000000" stroke="none">
<path d="M2512 4715 c-12 -14 -29 -47 -38 -73 -9 -26 -24 -54 -31 -62 -13 -13
-17 -12 -35 10 -11 14 -31 45 -43 71 -27 53 -47 72 -72 67 -29 -5 -27 -34 7
-106 61 -130 110 -189 145 -176 32 13 129 205 138 274 4 28 -48 24 -71 -5z"/>
<path d="M2732 4733 c-41 -8 -90 -68 -97 -118 -15 -97 13 -148 102 -190 l56
-27 64 32 c41 21 69 42 78 61 17 32 20 150 5 179 -22 42 -140 78 -208 63z
m123 -77 c13 -13 27 -35 30 -49 8 -29 -20 -82 -57 -110 -24 -18 -30 -18 -58
-7 -35 14 -80 68 -80 94 0 25 38 76 64 86 39 16 76 11 101 -14z"/>
<path d="M1874 4682 c-12 -9 -28 -32 -37 -50 -16 -32 -15 -35 5 -62 22 -31 64
-50 107 -50 43 0 55 -13 44 -46 -8 -24 -17 -30 -48 -34 -47 -6 -67 -32 -44
-56 15 -14 24 -14 75 -4 32 7 68 17 79 22 31 14 58 79 46 110 -11 31 -52 58
-86 58 -18 0 -28 7 -36 27 -13 35 -5 53 23 53 32 0 52 15 45 34 -9 24 -144 22
-173 -2z"/>
<path d="M3060 4643 c-23 -50 -45 -202 -34 -236 10 -32 48 -17 55 23 4 19 15
55 24 79 22 59 17 174 -7 179 -11 2 -23 -11 -38 -45z"/>
<path d="M1582 4610 c-53 -12 -72 -36 -72 -89 0 -25 7 -59 15 -75 8 -15 21
-53 29 -83 18 -69 41 -103 68 -103 24 0 141 74 172 109 32 36 26 74 -38 210
-6 13 -21 27 -34 32 -27 11 -94 10 -140 -1z m136 -199 c-2 -10 -13 -16 -32
-16 -36 0 -46 22 -14 34 29 11 50 3 46 -18z"/>
<path d="M3252 4610 c-23 -10 -79 -89 -88 -127 -10 -37 16 -92 64 -139 64 -62
115 -87 159 -79 32 6 34 8 31 43 -3 31 -8 38 -33 46 -111 34 -150 76 -125 136
25 59 92 87 134 55 27 -20 76 -20 76 1 0 30 -21 53 -58 64 -45 12 -129 12
-160 0z"/>
<path d="M1342 4524 c-95 -25 -132 -54 -132 -103 0 -27 87 -213 107 -228 9 -7
28 -13 41 -13 26 0 26 -3 7 110 -6 34 -5 36 45 59 32 15 50 29 50 41 0 21 -31
50 -53 50 -21 0 -22 26 -1 34 17 6 16 58 -1 62 -5 1 -34 -4 -63 -12z"/>
<path d="M3564 4516 c-23 -17 -92 -168 -101 -221 -5 -29 -1 -35 38 -61 106
-70 179 -82 179 -27 0 14 8 40 19 57 10 17 24 49 31 71 7 22 21 52 32 67 28
40 16 65 -46 93 -72 33 -125 40 -152 21z"/>
<path d="M290 4445 c0 -33 2 -36 15 -25 18 15 16 51 -2 58 -9 2 -13 -8 -13
-33z"/>
<path d="M2371 4150 c-25 -12 -60 -19 -80 -18 -36 3 -36 3 -36 -37 l0 -40 125
1 c69 0 150 2 180 3 30 2 67 0 82 -4 58 -15 50 66 -8 90 -64 27 -84 17 -84
-41 0 -14 -6 -24 -14 -24 -16 0 -26 21 -26 55 0 40 -66 48 -139 15z"/>
<path d="M1150 4100 c-23 -25 -44 -64 -59 -110 -13 -38 -28 -70 -34 -70 -6 0
-21 10 -34 22 -30 28 -68 17 -100 -31 -48 -72 -20 -231 47 -266 35 -18 60 -52
60 -81 0 -25 -39 -45 -92 -47 l-33 -2 -6 65 c-9 88 -41 158 -82 175 -30 14
-33 13 -58 -14 -34 -36 -46 -123 -27 -195 11 -43 20 -54 67 -86 56 -39 85 -78
75 -103 -6 -18 -82 -72 -89 -65 -3 3 -11 27 -19 54 -7 27 -24 73 -37 101 -19
42 -32 56 -62 68 -46 18 -42 18 -61 -1 -21 -21 -21 -191 -1 -249 19 -52 19
-53 -5 -27 -25 27 -100 31 -124 6 -26 -26 -21 -125 9 -184 14 -27 25 -52 25
-55 0 -3 -15 -5 -34 -5 -49 0 -83 -15 -91 -40 -11 -35 5 -95 41 -151 37 -58
71 -76 149 -79 26 0 50 -9 68 -24 24 -19 27 -26 18 -48 -12 -33 -47 -57 -71
-51 -11 3 -32 22 -47 42 -59 77 -78 91 -122 91 -65 0 -81 -13 -81 -64 0 -33 8
-56 32 -92 59 -85 110 -115 228 -132 38 -6 46 -11 48 -31 8 -54 -39 -91 -69
-54 -8 9 -34 29 -58 45 -36 22 -57 28 -101 28 -59 0 -80 -11 -80 -44 0 -30 45
-100 84 -130 62 -47 93 -55 186 -49 111 7 123 -3 89 -77 -29 -63 -50 -65 -126
-10 -62 44 -93 49 -148 23 -41 -19 -44 -37 -15 -93 23 -44 26 -47 100 -77 64
-27 104 -29 153 -8 48 20 93 19 101 -1 8 -20 8 -92 0 -121 -4 -13 -13 -23 -21
-23 -8 0 -29 10 -46 23 -58 41 -97 57 -137 57 -48 0 -90 -24 -90 -53 0 -31 45
-83 106 -122 56 -36 68 -61 39 -85 -23 -19 -18 -68 10 -96 30 -29 121 -74 152
-74 28 0 67 17 118 51 55 36 110 51 125 34 6 -7 10 -39 8 -72 l-3 -58 -116 0
c-84 0 -121 -4 -132 -14 -22 -18 -22 -74 1 -99 24 -27 94 -52 146 -52 52 0
126 38 146 76 15 28 58 54 88 54 31 0 42 -22 42 -82 l0 -58 -72 0 c-85 0 -147
-24 -174 -65 -17 -26 -17 -28 0 -60 24 -44 53 -55 146 -55 75 0 79 1 104 31
14 17 26 34 26 38 0 4 16 24 35 44 47 49 87 51 111 6 25 -50 43 -105 36 -115
-4 -6 -53 -10 -110 -9 -117 0 -132 -8 -132 -74 1 -62 39 -91 118 -91 99 0 149
33 202 131 35 67 43 73 74 65 23 -6 56 -62 56 -96 0 -22 -46 -50 -81 -50 -34
0 -119 -51 -134 -81 -12 -22 -12 -29 1 -47 21 -31 78 -45 149 -39 94 9 107 18
143 102 18 41 32 79 32 84 0 12 40 41 56 41 17 0 67 -88 60 -106 -3 -8 -23
-22 -43 -30 -21 -9 -57 -28 -80 -42 -48 -30 -62 -67 -44 -115 10 -25 14 -27
73 -27 90 1 156 37 179 100 58 157 61 190 20 276 -35 75 -76 104 -147 104 -40
0 -58 7 -107 42 -44 30 -71 42 -101 43 -22 1 -46 2 -52 3 -6 1 -21 24 -33 52
-23 54 -44 70 -91 70 -45 0 -65 14 -89 64 -16 32 -34 50 -67 67 -38 20 -51 35
-75 85 -24 50 -36 64 -71 80 -38 17 -43 24 -53 69 -13 60 -30 92 -62 122 -12
12 -23 32 -23 43 0 12 -6 34 -14 48 -55 109 -66 141 -66 199 0 43 -7 73 -24
106 -20 40 -23 57 -18 115 3 55 1 76 -16 108 l-20 40 20 45 c16 35 19 58 15
114 -4 60 -1 77 20 119 22 43 24 54 14 86 -16 55 -14 64 24 103 26 27 35 45
35 70 0 40 24 93 49 106 23 13 71 113 71 150 0 24 8 35 42 58 31 21 47 42 64
83 18 46 32 62 80 95 31 22 65 54 73 72 17 35 33 45 99 62 47 13 82 42 82 67
0 9 -18 33 -41 54 -48 43 -49 70 -4 84 64 19 75 27 100 76 30 59 26 86 -13
101 -37 15 -126 2 -157 -22 -34 -28 -82 -99 -98 -146 -9 -27 -18 -38 -32 -38
-15 0 -19 6 -17 25 13 114 13 142 2 174 -12 38 -34 66 -52 66 -6 0 -27 -18
-48 -40z m8 -280 c30 -33 42 -56 42 -77 0 -36 -13 -43 -81 -43 l-50 0 2 98 c1
53 4 101 7 106 3 5 13 -1 21 -13 9 -13 35 -45 59 -71z m-400 -683 c4 -32 -23
-59 -57 -55 -28 3 -55 46 -67 106 l-6 32 63 -29 c51 -23 65 -34 67 -54z m-145
-163 c51 -26 67 -45 67 -79 0 -38 -30 -70 -57 -60 -10 3 -31 34 -47 68 -16 34
-37 67 -45 74 -25 19 43 17 82 -3z m268 -1204 c15 -9 19 -22 19 -69 0 -35 -5
-63 -12 -69 -18 -14 -152 31 -156 53 -4 20 22 51 63 76 34 21 58 24 86 9z"/>
<path d="M3740 4098 c-21 -47 -25 -114 -10 -167 7 -24 6 -39 -1 -48 -17 -20
-37 -16 -44 10 -15 50 -46 104 -82 144 -45 48 -90 61 -162 47 -57 -11 -63 -35
-30 -106 19 -41 28 -50 63 -59 87 -23 94 -41 37 -97 -23 -22 -41 -49 -41 -60
0 -26 40 -51 105 -65 47 -9 55 -15 60 -38 7 -32 35 -63 94 -102 28 -19 49 -46
66 -82 26 -54 41 -71 78 -90 14 -7 24 -27 32 -61 12 -55 42 -109 76 -140 32
-28 49 -68 49 -112 0 -33 7 -47 40 -81 40 -41 40 -42 25 -71 -21 -40 -19 -69
9 -114 20 -33 22 -48 18 -106 -4 -56 -1 -75 18 -112 l22 -45 -22 -43 c-20 -38
-21 -53 -16 -121 5 -51 4 -79 -4 -84 -25 -15 -41 -80 -35 -138 7 -54 5 -59
-23 -91 -19 -21 -33 -51 -37 -78 -11 -68 -27 -106 -50 -116 -23 -11 -58 -75
-69 -129 -6 -24 -18 -38 -49 -55 -31 -18 -48 -37 -70 -81 -24 -48 -37 -62 -77
-82 -42 -22 -52 -32 -67 -75 -16 -45 -21 -51 -53 -55 -57 -9 -102 -37 -133
-83 -22 -33 -34 -42 -57 -42 -44 0 -75 -15 -122 -59 -41 -39 -44 -40 -98 -35
-47 5 -60 2 -90 -18 -68 -47 -106 -133 -94 -214 23 -154 107 -243 230 -244 58
0 74 12 74 56 0 56 -38 89 -157 135 -33 13 -28 43 14 89 41 46 72 50 88 11 6
-13 24 -52 40 -85 27 -54 37 -64 85 -88 38 -18 72 -27 108 -27 46 -1 58 3 82
28 50 49 16 97 -89 127 -112 32 -127 49 -95 110 35 64 76 44 156 -75 37 -55
84 -74 171 -69 59 3 72 7 88 28 30 39 22 89 -20 117 -29 19 -47 23 -117 23
-46 0 -85 4 -89 9 -10 17 45 140 66 146 30 10 83 -29 112 -84 35 -62 63 -74
168 -69 71 3 83 6 100 27 14 17 19 36 17 60 -3 32 -8 39 -57 63 -44 22 -68 28
-122 28 -59 0 -68 3 -74 20 -7 23 3 79 17 98 22 26 69 14 111 -29 82 -82 154
-98 251 -55 45 20 55 29 61 55 16 72 -45 99 -190 86 -70 -7 -72 -6 -78 16 -2
13 -2 47 2 74 6 45 8 50 30 47 23 -2 59 -18 151 -67 60 -32 83 -31 160 8 79
40 103 73 80 114 -11 19 -25 29 -45 31 -55 6 -48 20 31 60 77 39 134 88 147
125 5 12 -2 27 -18 43 -28 28 -81 32 -123 10 -105 -54 -133 -66 -142 -61 -5 3
-10 40 -10 81 l0 74 43 0 c23 -1 53 -7 67 -15 29 -17 101 -20 116 -5 6 6 30
16 54 23 32 9 51 23 68 47 48 72 40 98 -39 122 -32 9 -44 8 -82 -11 -24 -12
-52 -30 -62 -41 -38 -42 -91 -9 -112 69 -9 34 10 41 115 41 105 0 144 14 199
72 36 38 66 100 57 121 -6 17 -35 27 -79 27 -35 0 -98 -31 -136 -66 -45 -43
-89 -23 -89 40 0 31 20 42 98 55 73 12 111 30 146 72 65 77 84 155 44 183 -50
35 -115 9 -173 -66 -30 -40 -41 -48 -69 -48 -32 0 -44 12 -60 62 -7 24 47 54
112 61 83 10 151 78 167 169 4 20 4 46 1 56 -8 24 -47 42 -91 42 -28 0 -40 -8
-68 -42 -18 -24 -40 -58 -47 -76 -15 -39 -39 -54 -63 -40 -70 39 1 148 96 148
34 0 38 3 62 53 19 42 25 70 25 123 0 41 -5 75 -12 82 -7 7 -36 12 -65 12 -61
0 -62 2 -37 92 14 49 15 65 4 103 -16 56 -37 69 -100 60 l-49 -7 1 97 c0 81
-3 101 -19 124 -26 35 -62 38 -95 8 -30 -28 -68 -124 -68 -173 0 -22 -6 -37
-16 -41 -24 -9 -75 10 -91 34 -14 21 -12 25 36 72 63 61 81 102 81 181 0 83
-35 149 -80 150 -9 0 -32 -11 -52 -25 l-38 -25 -5 27 c-19 99 -28 120 -68 161
-22 23 -49 42 -60 42 -12 0 -25 -15 -37 -42z m158 -305 l-3 -88 -34 -3 c-59
-6 -81 5 -81 39 0 23 13 43 53 84 28 30 56 55 60 55 4 0 6 -39 5 -87z m336
-350 c-9 -21 -21 -55 -26 -75 -12 -44 -30 -53 -69 -33 -49 26 -33 76 36 105
23 10 46 23 49 29 17 27 25 7 10 -26z m126 -228 c0 -3 -7 -22 -15 -42 -8 -19
-15 -46 -15 -58 0 -24 -17 -35 -55 -35 -28 0 -67 37 -63 60 5 23 148 95 148
75z m-159 -1471 c47 -26 67 -53 54 -74 -3 -5 -14 -10 -24 -10 -10 0 -43 -8
-74 -19 -71 -23 -82 -14 -75 60 8 76 37 87 119 43z"/>
<path d="M2780 4099 c-9 -21 -10 -39 -4 -57 8 -24 16 -28 69 -32 33 -3 79 -16
102 -28 23 -12 52 -22 64 -22 11 0 32 -9 46 -20 14 -11 39 -20 55 -20 16 0 46
-9 68 -20 22 -11 48 -20 58 -20 27 0 72 38 72 61 0 27 -58 61 -93 54 -48 -8
-76 4 -92 42 -16 38 -37 36 -58 -8 -19 -37 -44 -35 -68 5 -22 38 -51 51 -99
44 -25 -4 -31 0 -39 24 -8 22 -16 28 -39 28 -24 0 -32 -6 -42 -31z"/>
<path d="M1962 4068 c-7 -7 -12 -26 -12 -44 0 -48 -22 -61 -59 -35 -16 12 -33
30 -36 41 -8 26 -17 25 -61 -5 -20 -14 -49 -25 -63 -25 -35 0 -48 -10 -56 -42
-14 -54 31 -90 82 -65 15 8 53 17 84 20 60 7 114 29 122 51 9 22 86 57 105 47
21 -11 62 4 62 22 0 8 -9 22 -21 33 -20 18 -21 18 -39 -6 l-19 -25 -16 23
c-17 24 -54 29 -73 10z"/>
<path d="M2248 3934 c-16 -8 -65 -17 -110 -21 -72 -5 -100 -14 -203 -60 -144
-65 -176 -83 -302 -173 -150 -106 -274 -241 -347 -380 -16 -30 -38 -66 -48
-79 -10 -13 -24 -45 -32 -70 -8 -25 -30 -84 -50 -131 -20 -47 -39 -103 -43
-125 -3 -22 -13 -53 -22 -70 -13 -25 -16 -68 -16 -260 0 -171 3 -236 13 -253
7 -13 18 -51 23 -85 5 -34 18 -82 28 -107 93 -221 104 -240 217 -404 34 -49
207 -221 254 -252 212 -144 242 -160 365 -203 244 -86 395 -107 652 -89 189
13 390 73 535 158 190 112 397 281 450 368 12 20 43 67 70 103 26 36 67 108
91 160 24 52 51 110 60 129 9 19 28 79 42 133 23 91 25 114 25 335 1 235 0
238 -29 327 -16 50 -45 127 -65 172 -20 45 -36 87 -36 95 0 24 -78 169 -130
245 -55 78 -209 230 -286 283 -27 19 -70 48 -95 66 -26 17 -82 46 -125 64 -43
18 -110 47 -148 65 -59 27 -87 34 -164 38 -60 4 -102 11 -117 21 -35 23 -416
23 -457 0z m493 -80 c24 -8 73 -21 109 -29 116 -24 233 -75 384 -168 87 -53
284 -248 343 -339 52 -81 116 -213 111 -228 -2 -6 -26 -42 -53 -80 -51 -70
-80 -88 -165 -106 -19 -3 -68 -22 -110 -42 -41 -19 -93 -38 -115 -42 -22 -4
-85 -20 -140 -35 -182 -50 -280 -76 -294 -78 -8 -1 -25 14 -37 33 -48 73 -55
79 -109 96 -72 23 -121 10 -165 -46 -17 -21 -39 -42 -50 -45 -27 -9 -32 -36
-15 -84 13 -38 13 -42 -3 -49 -9 -4 -39 -7 -66 -6 -66 1 -76 16 -69 103 4 58
2 70 -19 101 -24 35 -48 51 -103 67 -17 5 -38 22 -50 41 -11 18 -38 54 -59 80
l-39 46 6 118 c7 131 0 148 -52 148 -16 0 -49 9 -75 20 -56 25 -100 20 -155
-20 -64 -47 -128 -72 -150 -60 -51 27 -74 15 -184 -96 -67 -68 -109 -104 -117
-99 -16 10 -7 75 17 123 36 70 76 137 101 171 49 66 218 234 277 276 132 93
295 168 445 205 41 10 89 23 105 28 17 6 125 11 241 11 168 1 221 -2 255 -15z
m957 -1064 c38 -7 72 -19 87 -32 l25 -22 0 -197 c0 -152 -3 -205 -15 -232 -8
-20 -19 -67 -25 -105 -19 -136 -130 -341 -273 -503 -142 -163 -240 -239 -417
-328 -207 -104 -236 -111 -480 -121 -265 -10 -434 1 -523 35 -65 24 -270 126
-322 160 -84 54 -305 261 -305 285 0 6 -20 32 -45 59 -75 80 -189 322 -199
425 -4 33 -13 73 -20 90 -23 52 -29 356 -7 356 4 0 27 -42 51 -92 48 -98 124
-191 189 -230 141 -83 196 -134 206 -190 4 -23 -2 -54 -20 -103 -55 -145 -57
-154 -52 -268 4 -103 6 -108 33 -130 15 -12 37 -25 48 -29 12 -3 190 -6 396
-7 317 -1 385 2 435 15 33 9 85 22 115 29 87 19 150 57 201 122 60 76 57 71
124 268 31 94 76 215 100 270 23 55 48 118 56 140 16 44 34 55 123 81 33 10
71 28 85 40 24 21 24 23 14 80 -10 51 -9 61 5 75 55 53 263 82 410 59z m-490
-113 c2 -11 -6 -30 -19 -43 -33 -35 -115 -34 -158 2 -33 27 -39 49 -18 58 6 2
52 4 102 3 78 -2 90 -4 93 -20z m-662 -139 c11 -17 9 -97 -3 -109 -9 -9 -87 2
-100 14 -10 10 9 69 28 88 21 21 64 25 75 7z m-109 -138 c19 -22 41 -40 48
-40 41 0 36 -107 -9 -186 -19 -33 -28 -40 -76 -50 -30 -7 -71 -17 -90 -23 -55
-17 -205 -14 -220 4 -10 13 -10 19 4 34 10 11 30 22 44 26 35 8 128 70 169
111 47 48 63 85 56 128 -5 33 -3 36 17 36 15 0 36 -15 57 -40z"/>
<path d="M2115 850 c-7 -12 18 -24 37 -18 8 3 5 9 -9 16 -14 8 -24 9 -28 2z"/>
<path d="M2840 850 c-22 -13 -5 -23 27 -16 21 6 24 9 12 17 -18 11 -20 11 -39
-1z"/>
<path d="M2565 779 l-70 -31 -81 26 c-95 31 -117 33 -112 9 2 -10 22 -24 47
-33 25 -8 46 -21 49 -28 8 -24 -26 -57 -98 -97 -113 -62 -235 -178 -295 -282
-15 -26 -16 -34 -6 -47 15 -18 48 -20 85 -6 14 5 51 44 82 86 104 140 275 294
326 294 34 0 121 -66 178 -134 143 -172 213 -245 241 -251 30 -7 80 12 86 32
5 15 -101 138 -169 195 -29 25 -91 71 -138 103 -47 31 -89 65 -94 75 -13 28
-1 47 33 55 37 8 68 45 48 57 -20 13 -38 9 -112 -23z"/>
</g>
</svg>
